<svg height="512" viewBox="0 0 64 64" width="512" xmlns="http://www.w3.org/2000/svg"><g id="Fill_Outline" data-name="Fill Outline"><g id="Color"><path d="m53 11v50h-39a5 5 0 0 1 -5-5v-49h34v4z" fill="#95d5b2"/><path d="m53 47v14h-39a5 5 0 0 1 -5-5v-49h13v10a30 30 0 0 0 30 30z" fill="#52b788"/><path d="m9 7v49a5 5 0 0 0 5 5v-54z" fill="#40916c"/><path d="m53 11h-39.775a4.16 4.16 0 0 1 -4.22-4.192 3.993 3.993 0 0 1 3.995-3.808h40a6.666 6.666 0 0 0 0 8z" fill="#ade8f4"/><path d="m43 31a10 10 0 1 0 -12 9.8v5.2h-3v4h3v4h4v-4h3v-4h-3v-5.2a10 10 0 0 0 8-9.8zm-10 6a6 6 0 1 1 6-6 6 6 0 0 1 -6 6z" fill="#ff7373"/><path d="m53 23a18.974 18.974 0 0 0 -12-12h12z" fill="#ff7373"/><g fill="#ef5350"><path d="m53 61h-12a18.974 18.974 0 0 0 12-12z"/><path d="m35 48a2.006 2.006 0 0 1 -2-2v-4.85a2.042 2.042 0 0 0 -1.32-1.88 10.5 10.5 0 0 1 -6.63-10.82 10.379 10.379 0 0 1 2.61-5.9 10 10 0 0 0 3.34 18.25v5.2h-3v4h3v4h4v-4h3v-2z"/><path d="m35 46v-4.29a30.016 30.016 0 0 1 -11.23-14.55 9.823 9.823 0 0 0 -.77 3.84 10.009 10.009 0 0 0 8 9.8v5.2h-3v4h3v4h4v-4h3v-4z"/></g><path d="m35 48a2.006 2.006 0 0 1 -2-2v-4.85a2.042 2.042 0 0 0 -1.32-1.88 10.5 10.5 0 0 1 -6.66-9.15 27.787 27.787 0 0 1 -1.25-2.97 9.836 9.836 0 0 0 -.77 3.85 10.009 10.009 0 0 0 8 9.8v5.2h-3v4h3v4h4v-4h3v-2z" fill="#e53935"/><path d="m51.66 7a6.523 6.523 0 0 0 .31 2h-38.97a2.006 2.006 0 0 1 -2-2 2.015 2.015 0 0 1 2-2h38.97a6.523 6.523 0 0 0 -.31 2z" fill="#48cae4"/><path d="m24 19-3-2-3 2v-8-4h6v4z" fill="#ff7373"/><path d="m24 14.37v4.63l-3-2-3 2v-12h1v6.89a.874.874 0 0 0 .88.88.858.858 0 0 0 .61-.26.879.879 0 0 1 1.11-.11l1.04.69a.874.874 0 0 0 1.36-.72z" fill="#ef5350"/></g><g id="Outline_copy" fill="#023e8a" data-name="Outline copy"><path d="m53 37a1 1 0 0 0 -1 1v10.825a18.063 18.063 0 0 1 -11.175 11.175h-26.825a4 4 0 0 1 -4-4v-30a1 1 0 0 0 -2 0v30a6.006 6.006 0 0 0 6 6h39a1 1 0 0 0 1-1v-23a1 1 0 0 0 -1-1zm-7.529 23a20.144 20.144 0 0 0 6.529-6.529v6.529z"/><path d="m53.992 11a1 1 0 0 0 -.192-.6 5.7 5.7 0 0 1 0-6.8 1 1 0 0 0 -.8-1.6h-40a4.994 4.994 0 0 0 -4.994 4.761c-.006.055-.006 15.239-.006 15.239a1 1 0 0 0 2 0v-11.12a5.324 5.324 0 0 0 3 1.1v45.02a1 1 0 0 0 2 0v-45h2v7a1 1 0 0 0 1.555.832l2.445-1.632 2.445 1.63a1 1 0 0 0 1.555-.83v-11h7a1 1 0 0 0 0-2h-19a1 1 0 0 0 0 2h4v2h-3.774a3.34 3.34 0 0 1 -2.405-1.035 2.849 2.849 0 0 1 -.821-2.109 2.993 2.993 0 0 1 3-2.856h38.281a7.755 7.755 0 0 0 0 6h-23.281a1 1 0 0 0 0 2h12.825a18.063 18.063 0 0 1 11.175 11.175v10.825a1 1 0 0 0 2 0v-23zm-30.992-3v9.132l-1.445-.964a1 1 0 0 0 -1.11 0l-1.445.964v-9.132zm22.471 4h6.529v6.529a20.144 20.144 0 0 0 -6.529-6.529z"/><path d="m39 8a1 1 0 0 0 0-2h-3a1 1 0 0 0 0 2z"/><path d="m48 8a1 1 0 0 0 0-2h-5a1 1 0 0 0 0 2z"/><path d="m39.063 21.826a11 11 0 1 0 -9.063 19.759v3.415h-2a1 1 0 0 0 -1 1v4a1 1 0 0 0 1 1h2v3a1 1 0 0 0 1 1h4a1 1 0 0 0 1-1v-3h2a1 1 0 0 0 1-1v-4a1 1 0 0 0 -1-1h-2v-3.415a11 11 0 0 0 6.174-16.65 1 1 0 0 0 -1.668 1.106 8.994 8.994 0 0 1 -5.7 13.777 1 1 0 0 0 -.8.981v5.201a1 1 0 0 0 1 1h2v2h-2.006a1 1 0 0 0 -1 1v3h-2v-3a1 1 0 0 0 -1-1h-2v-2h2a1 1 0 0 0 1-1v-5.2a1 1 0 0 0 -.8-.981 9 9 0 1 1 6.76-16.325 1 1 0 1 0 1.1-1.668z"/><path d="m33 36a4.966 4.966 0 0 1 -2.151-.492 1 1 0 0 0 -.862 1.8 7.015 7.015 0 1 0 -3.3-3.3 1 1 0 0 0 1.8-.862 5 5 0 1 1 4.513 2.854z"/></g></g></svg>