<svg id="Capa_1" enable-background="new 0 0 508.387 508.387" height="512" viewBox="0 0 508.387 508.387" width="512" xmlns="http://www.w3.org/2000/svg"><g><path d="m408.333 7.5h-269.074c-2.972 0-5.894.226-8.756.642v410.793l280.247-7.572 11.908-389.537c.001-7.912-6.413-14.326-14.325-14.326z" fill="#af66da"/><path d="m392.659 21.826v341.264h30v-341.264c0-7.912-6.414-14.326-14.326-14.326h-30c7.912 0 14.326 6.414 14.326 14.326z" fill="#9857bd"/><path d="m144.124 7.5h-8.443c-31.599 0-57.453 25.854-57.453 57.453v354.34l65.896 9z" fill="#814aa0"/><path d="m135.681 7.5c-7.615 0-14.891 1.514-21.557 4.236v416.557h30v-420.793z" fill="#73428f"/><path d="m408.103 467.555h-282.512c-26.158 0-47.363-21.205-47.363-47.363 0-26.158 21.205-47.363 47.363-47.363h297.068v23.534l-20 23.829 20 23.829v8.978c0 8.039-6.517 14.556-14.556 14.556z" fill="#9857bd"/><path d="m125.591 444.021c-13.139 0-23.828-10.69-23.828-23.829s10.69-23.829 23.828-23.829h297.068v47.658z" fill="#fff9f0"/><path d="m372.659 396.363h50v47.658h-50z" fill="#ffefe1"/><path d="m361.439 200.531-79.164 79.164c-4.142 4.142-10.858 4.142-15 0l-79.164-79.164c-4.142-4.142-4.142-10.858 0-15l79.164-79.164c4.142-4.142 10.858-4.142 15 0l79.164 79.164c4.142 4.142 4.142 10.858 0 15z" fill="#fed402"/><path d="m361.439 185.531-79.164-79.164c-4.142-4.142-10.858-4.142-15 0l-7.5 7.5 71.664 71.664c4.142 4.142 4.142 10.858 0 15l-71.664 71.664 7.5 7.5c4.142 4.142 10.858 4.142 15 0l79.164-79.164c4.142-4.142 4.142-10.858 0-15z" fill="#fac600"/><path d="m300.072 202.548-15.78 15.78c-5.256 5.256-13.777 5.256-19.033 0l-15.78-15.78c-5.256-5.256-5.256-13.777 0-19.033l15.78-15.78c5.256-5.256 13.777-5.256 19.033 0l15.78 15.78c5.256 5.255 5.256 13.777 0 19.033z" fill="#d7aa02"/><path d="m332.006 396.363v105.641c0 4.79 3.951 7.869 7.248 5.648l15.252-10.276c1.461-.984 3.207-.968 4.657.044l14.339 10.01c3.3 2.303 7.313-.772 7.313-5.603v-105.464l-24.404 12.872z" fill="#fed402"/><path d="m332.006 396.363h48.809v38.617h-48.809z" fill="#fac600"/><g fill="#fed402"><path d="m409.172 0h-70.203c-4.143 0-7.5 3.358-7.5 7.5v22.917c0 6.552 5.331 11.883 11.884 11.883h18.446c14.369 0 26.06 11.69 26.06 26.06v15.097c0 6.552 5.331 11.883 11.884 11.883h22.916c4.143 0 7.5-3.358 7.5-7.5v-66.854c0-11.572-9.414-20.986-20.987-20.986z"/><path d="m422.659 284.989h-22.916c-6.553 0-11.884 5.331-11.884 11.883v15.097c0 14.37-11.69 26.06-26.06 26.06h-18.446c-6.553 0-11.884 5.331-11.884 11.883v22.917c0 4.142 3.357 7.5 7.5 7.5h70.203c11.572 0 20.986-9.415 20.986-20.986v-66.854c.001-4.142-3.357-7.5-7.499-7.5z"/></g></g></svg>