<svg id="Layer_1" enable-background="new 0 0 512 512" height="512" viewBox="0 0 512 512" width="512" xmlns="http://www.w3.org/2000/svg"><g><g><g><path d="m452.06 15v407.06c0 7.69-5.81 14.13-13.45 14.92l-175.11 18.12-187.02 19.35c-.51.05-1.03.08-1.54.08-3.7 0-7.28-1.36-10.05-3.86-3.15-2.84-4.95-6.89-4.95-11.14v-407.06c0-28.93 23.54-52.47 52.47-52.47h12.46l46.52 20 46.51-20h219.16c8.29 0 15 6.72 15 15z" fill="#bee75e"/><path d="m452.06 15v407.06c0 7.69-5.81 14.13-13.45 14.92l-175.11 18.12v-455.1h173.56c8.29 0 15 6.72 15 15z" fill="#8ee26b"/><path d="m452.06 422.06v74.94h-339.65c-10.35 0-19.72-4.2-26.5-10.98s-10.97-16.14-10.97-26.49c0-20.69 16.77-37.47 37.47-37.47z" fill="#f9f9f9"/><path d="m263.5 422.06h188.56v74.94h-188.56z" fill="#eceae7"/><path d="m452.06 497c0 8.28-6.71 15-15 15h-324.65c-28.93 0-52.47-23.54-52.47-52.47s23.54-52.47 52.47-52.47h324.65c8.29 0 15 6.72 15 15 0 8.29-6.71 15-15 15h-324.65c-12.39 0-22.47 10.08-22.47 22.47s10.08 22.47 22.47 22.47h324.65c8.29 0 15 6.72 15 15z" fill="#eceae7"/><path d="m217.9 0v112.17c0 3.06-1.85 5.8-4.67 6.95-.92.37-1.88.55-2.83.55-1.98 0-3.93-.78-5.37-2.26l-33.64-34.49-33.65 34.49c-2.13 2.19-5.37 2.86-8.19 1.71-2.83-1.15-4.68-3.89-4.68-6.95v-112.17z" fill="#ffa07a"/></g><g fill="#e7dfdd"><path d="m452.06 497c0 8.28-6.71 15-15 15h-173.56v-30h173.56c8.29 0 15 6.72 15 15z"/><path d="m437.06 437.06h-173.56v-30h173.56c8.29 0 15 6.72 15 15 0 8.29-6.71 15-15 15z"/></g></g><g><path d="m311.23 352.17c0 8.28-6.72 15-15 15h-65.46c-8.28 0-15-6.72-15-15 0-8.29 6.72-15 15-15h65.46c8.28 0 15 6.71 15 15z" fill="#fff"/><path d="m346.57 170.86v73.09c0 8.29-6.71 15-15 15h-136.14c-8.29 0-15-6.71-15-15v-73.09c0-8.28 6.71-15 15-15h136.14c8.29 0 15 6.72 15 15z" fill="#fff49d"/><path d="m331.23 302.17c0 8.28-6.72 15-15 15h-105.46c-8.28 0-15-6.72-15-15 0-8.29 6.72-15 15-15h105.46c8.28 0 15 6.71 15 15z" fill="#fff"/></g><path d="m311.23 352.17c0 8.28-6.72 15-15 15h-32.73v-30h32.73c8.28 0 15 6.71 15 15z" fill="#f9f9f9"/><path d="m331.23 302.17c0 8.28-6.72 15-15 15h-52.73v-30h52.73c8.28 0 15 6.71 15 15z" fill="#f9f9f9"/><path d="m346.57 170.86v73.09c0 8.29-6.71 15-15 15h-68.07v-103.09h68.07c8.29 0 15 6.72 15 15z" fill="#fff16b"/></g></svg>