<svg id="Capa_1" enable-background="new 0 0 512 512" height="512" viewBox="0 0 512 512" width="512" xmlns="http://www.w3.org/2000/svg"><path d="m281.52 504.491h-210.454c-2.631 0-4.765-2.133-4.765-4.765v-301.685c0-2.631 2.133-4.765 4.765-4.765h210.454c2.631 0 4.765 2.133 4.765 4.765v301.685c0 2.632-2.133 4.765-4.765 4.765z" fill="#eedfda"/><path d="m281.348 193.276h-39.838v263.574c0 2.727-2.21 4.937-4.937 4.937h-170.272v37.765c0 2.727 2.211 4.937 4.937 4.937h210.109c2.727 0 4.937-2.211 4.937-4.937v-301.34c.001-2.725-2.21-4.936-4.936-4.936z" fill="#ded0cb"/><path d="m329.922 134.663 111.017 79.301c7.768 5.549 5.627 17.625-3.575 20.166-2.73.754-5.644.459-8.168-.827l-129.639-66.036z" fill="#fce25c"/><path d="m440.939 213.964-4.112-2.937c-2.573.578-5.271.254-7.631-.948l-114.969-58.563-14.67 15.752 129.639 66.036c2.524 1.286 5.438 1.581 8.168.827 9.202-2.541 11.343-14.618 3.575-20.167z" fill="#fcdd2e"/><path d="m301.076 78.763c-12.598-7.179-24.7-13.476-35.986-17.651-.399-25.752-21.386-46.509-47.233-46.509-26.096 0-47.252 21.155-47.252 47.251 0 19.067 11.3 35.485 27.562 42.952-1.633 28.627 15.053 58.835 44.863 75.821 39.959 22.77 88.349 13.157 108.081-21.472 19.733-34.628-10.076-57.622-50.035-80.392z" fill="#fce25c"/><path d="m338.201 103.759c1.45 8.187-.167 17.046-5.745 26.835-19.732 34.628-68.122 44.242-108.081 21.472-7.979-4.546-15-10.052-21-16.209 6.994 17.739 20.653 33.943 39.655 44.771 39.959 22.77 88.349 13.157 108.081-21.472 12.687-22.265 4.893-39.719-12.91-55.397z" fill="#fcdd2e"/><path d="m284.354 89.383c-14.607 9.606-13.079 31.581 2.782 38.932 10.841 5.024 25.784 8.857 46.145 8.857 38.339 0 79.298-16.131 103.323-27.452 6.216-2.929 4.532-12.195-2.316-12.758l-135.811-11.182c-4.978-.41-9.95.859-14.123 3.603z" fill="#fce25c"/><path d="m434.289 96.962-38.199-3.145c-24.482 10.762-60.502 23.426-94.475 23.426-10.05 0-18.775-.937-26.343-2.487 1.738 5.667 5.721 10.711 11.865 13.559 10.841 5.024 25.784 8.857 46.145 8.857 38.339 0 79.298-16.131 103.323-27.452 6.216-2.929 4.532-12.194-2.316-12.758z" fill="#fcdd2e"/><path d="m164.547 43.37-18.982-30.322c-2.095-3.347 1.952-7.137 5.154-4.826l33.306 24.035c5.762 4.158 10.357 9.73 13.341 16.179 1.535 3.316.402 7.256-2.659 9.251l-5.893 3.841c-5.75 3.748-12.342 6.007-19.183 6.574l-32.281 2.675c-3.784.314-5.41-4.689-2.164-6.66l28.55-17.334c1.176-.712 1.54-2.248.811-3.413z" fill="#e7b467"/><path d="m197.367 48.436c-2.579-5.573-6.365-10.485-11.063-14.402 1.38 1.979 2.602 4.072 3.623 6.278 1.535 3.316.402 7.256-2.659 9.252l-5.893 3.841c-5.75 3.748-12.342 6.007-19.183 6.574l-23.379 1.937-3.626 2.202c-3.246 1.971-1.62 6.973 2.164 6.66l32.281-2.675c6.84-.567 13.433-2.826 19.183-6.574l5.893-3.841c3.061-1.996 4.193-5.936 2.659-9.252z" fill="#d7a85f"/><path d="m286.285 226.279c-4.147 0-7.509 3.361-7.509 7.509v263.194h-204.965v-43.072c0-4.147-3.361-7.509-7.509-7.509s-7.509 3.361-7.509 7.509v45.81c0 6.771 5.508 12.279 12.279 12.279h210.443c6.771 0 12.279-5.508 12.279-12.279v-265.932c0-4.147-3.361-7.509-7.509-7.509z"/><path d="m202.314 261.804c4.147 0 7.509-3.361 7.509-7.509s-3.361-7.509-7.509-7.509h-53.8c-4.147 0-7.509 3.361-7.509 7.509s3.361 7.509 7.509 7.509z"/><path d="m116.503 302.908c0 4.147 3.361 7.509 7.509 7.509h102.804c4.147 0 7.509-3.361 7.509-7.509s-3.361-7.509-7.509-7.509h-102.804c-4.148 0-7.509 3.362-7.509 7.509z"/><path d="m124.012 340.873h102.804c4.147 0 7.509-3.361 7.509-7.509s-3.361-7.509-7.509-7.509h-102.804c-4.147 0-7.509 3.361-7.509 7.509s3.361 7.509 7.509 7.509z"/><path d="m124.012 371.329h102.804c4.147 0 7.509-3.361 7.509-7.509s-3.361-7.509-7.509-7.509h-102.804c-4.147 0-7.509 3.361-7.509 7.509s3.361 7.509 7.509 7.509z"/><path d="m124.012 402.41h102.804c4.147 0 7.509-3.361 7.509-7.509s-3.361-7.509-7.509-7.509h-102.804c-4.147 0-7.509 3.361-7.509 7.509s3.361 7.509 7.509 7.509z"/><path d="m124.012 432.867h102.804c4.147 0 7.509-3.361 7.509-7.509s-3.361-7.509-7.509-7.509h-102.804c-4.147 0-7.509 3.361-7.509 7.509s3.361 7.509 7.509 7.509z"/><path d="m445.304 207.854-81.969-58.551c.683-2.557 1.134-5.102 1.358-7.626 28.176-5.091 55.203-15.782 75.114-25.165 5.905-2.783 9.092-8.969 7.929-15.392-1.163-6.427-6.32-11.106-12.831-11.642l-117.384-9.664c-.232-.183-.474-.358-.732-.516-3.619-2.214-7.542-4.523-11.996-7.06-13.133-7.483-23.396-12.663-32.517-16.386-3.021-27.319-26.429-48.758-54.418-48.758-13.614 0-26.466 4.94-36.521 13.963l-26.223-18.923c-4.366-3.151-10.159-2.781-14.089.897-3.93 3.68-4.681 9.437-1.824 14.002l16.268 25.987-24.179 14.68c-4.425 2.688-6.398 8.004-4.799 12.926 1.503 4.625 5.758 7.675 10.543 7.675.31 0 .623-.014.937-.039l26.979-2.236c3.741 14.06 12.916 26.012 25.601 33.294.234 29.177 17.138 57.816 44.368 75.169-.366.179-.621.314-.747.383-.47.257-.9.559-1.292.896h-161.808c-6.771 0-12.279 5.508-12.279 12.279v220.823c0 4.147 3.361 7.509 7.509 7.509s7.509-3.361 7.509-7.509v-218.085h188.077c-6.554 4.623-9.909 9.352-10.19 9.758-2.356 3.412-1.518 8.115 1.895 10.471 1.309.904 2.801 1.339 4.278 1.339 2.37 0 4.698-1.123 6.15-3.226.408-.568 10.216-13.902 30.611-12.316 4.148.326 7.749-2.767 8.072-6.901.016-.203.017-.403.017-.602 9.255-1.438 18.134-4.317 26.212-8.653l96.858 49.338c2.675 1.363 5.601 2.057 8.548 2.056 1.683 0 3.372-.226 5.025-.681 7.076-1.953 12.267-7.657 13.547-14.884 1.28-7.226-1.635-14.365-7.607-18.63zm-277.67-154.651c2.299-1.395 3.907-3.605 4.528-6.222.622-2.616.178-5.314-1.25-7.594 0-.001 0-.001 0-.001l-8.372-13.372 17.092 12.333c4.671 3.371 8.425 7.906 10.864 13.124l-5.78 3.768c-4.693 3.058-10.123 4.919-15.703 5.381l-15.743 1.305zm270.488 170.66c-.127.718-.649 2.447-2.754 3.028-.926.256-1.907.155-2.762-.279l-100.476-51.18c-2.328-1.186-5.104-1.077-7.33.287-22.024 13.487-52.661 12.853-78.053-1.616-26.482-15.09-42.608-42.123-41.082-68.87.175-3.085-1.556-5.962-4.364-7.251-10.371-4.763-18.035-13.58-21.358-24.22 4.578-1.342 8.964-3.331 12.972-5.943l5.893-3.841c6.143-4.005 8.452-12.043 5.373-18.695-2.583-5.582-6.215-10.621-10.649-14.85 6.933-5.39 15.401-8.321 24.325-8.321 21.571 0 39.39 17.547 39.725 39.116.048 3.099 1.996 5.851 4.902 6.926 7.168 2.652 15.066 6.321 24.816 11.556-1.539.507-3.045 1.127-4.496 1.885-3.675 1.92-5.098 6.457-3.177 10.132 1.921 3.676 6.461 5.097 10.132 3.177 2.495-1.303 5.297-1.868 8.101-1.64l132.815 10.935c-21.859 10.07-61.203 25.465-97.395 25.465-16.837 0-31.301-2.745-42.987-8.161-2.287-1.06-4.177-2.577-5.617-4.509-2.479-3.325-7.185-4.013-10.508-1.534-3.325 2.479-4.013 7.183-1.534 10.508 2.949 3.957 6.766 7.04 11.344 9.161 13.679 6.34 30.267 9.553 49.302 9.553 5.284 0 10.604-.295 15.923-.823-.391 1.815-.954 3.666-1.711 5.574-1.273 3.209-.194 6.872 2.615 8.879l86.466 61.763c1.779 1.269 1.676 3.073 1.549 3.788z"/><circle cx="223.514" cy="56.838" r="8.938"/></svg>