<svg id="Icon_Set" enable-background="new 0 0 256 256" height="512" viewBox="0 0 256 256" width="512" xmlns="http://www.w3.org/2000/svg"><g><g><g><g><path d="m216.897 227.172h-177.795v-197.673c0-11.783 9.552-21.335 21.335-21.335h156.46z" fill="#5fcdff"/><path d="m75.44 8.168c-11.79 0-21.34 9.55-21.34 21.33v197.67h-15v-197.67c0-11.78 9.55-21.33 21.34-21.33z" fill="#73d7f9"/><path d="m201.9 8.168h15v219h-15z" fill="#30b6ff"/><path d="m216.897 247.832h-157.135c-11.41 0-20.66-9.25-20.66-20.66 0-11.402 9.241-20.66 20.66-20.66h157.135z" fill="#ffe2e2"/><path d="m74.76 247.828h-15c-18.463 0-27.505-22.376-14.61-35.27 3.74-3.74 8.91-6.05 14.61-6.05h15c-5.7 0-10.87 2.31-14.61 6.05-12.898 12.898-3.846 35.27 14.61 35.27z" fill="#ffefee"/><path d="m201.9 206.508h15v41.32h-15z" fill="#ffcfcf"/></g></g><g><g><circle cx="128.001" cy="108.131" fill="#ffe2e2" r="43.749"/><path d="m133.978 151.475c-1.953.271-3.945.407-5.978.407-24.159 0-43.75-19.592-43.75-43.75s19.591-43.752 43.75-43.752c2.032 0 4.025.136 5.978.407-21.329 2.917-37.772 21.21-37.772 43.344s16.442 40.426 37.772 43.344z" fill="#ffefee"/><path d="m171.75 108.131c0 24.159-19.584 43.75-43.75 43.75-2.025 0-4.025-.136-5.978-.407 21.337-2.917 37.772-21.21 37.772-43.344s-16.435-40.427-37.772-43.344c1.953-.271 3.953-.407 5.978-.407 24.166.001 43.75 19.593 43.75 43.752z" fill="#ffcfcf"/></g><g><path d="m144.611 94.387c-4.037-4.037-10.581-4.037-14.618 0l-1.993 1.993-1.993-1.993c-4.037-4.037-10.581-4.037-14.618 0-4.037 4.037-4.037 10.581 0 14.618l1.993 1.993 13.399 13.399c.673.673 1.765.673 2.438 0l13.399-13.399 1.993-1.993c4.037-4.037 4.037-10.582 0-14.618z" fill="#ff4a73"/></g></g></g><g fill="#5f266d"><path d="m220.9 8.168c0-2.209-1.791-4-4-4h-156.46c-13.973 0-25.34 11.363-25.34 25.33v197.67c0 13.591 11.057 24.664 24.663 24.664h157.135c2.209 0 4-1.791 4-4-.001-9.082.002-225.102.002-239.664zm-160.46 4h152.46v190.344h-153.138c-6.419 0-12.271 2.467-16.663 6.5v-179.514c.001-9.556 7.78-17.33 17.341-17.33zm152.457 231.664h-153.135c-9.187 0-16.66-7.474-16.66-16.66s7.474-16.66 16.66-16.66h153.135z"/><path d="m195 84.998c2.209 0 4-1.791 4-4v-7.152c0-2.209-1.791-4-4-4s-4 1.791-4 4v7.152c0 2.209 1.791 4 4 4z"/><path d="m195 62.846c2.209 0 4-1.791 4-4v-31c0-2.209-1.791-4-4-4s-4 1.791-4 4v31c0 2.209 1.791 4 4 4z"/><path d="m128.001 155.88c26.329 0 47.749-21.42 47.749-47.749s-21.42-47.749-47.749-47.749-47.75 21.42-47.75 47.749 21.421 47.749 47.75 47.749zm0-87.498c21.918 0 39.749 17.831 39.749 39.749s-17.831 39.749-39.749 39.749-39.75-17.831-39.75-39.749 17.832-39.749 39.75-39.749z"/><path d="m123.952 127.226c2.231 2.231 5.863 2.233 8.094 0l15.393-15.393c5.603-5.603 5.604-14.672 0-20.275-5.353-5.353-13.829-5.572-19.439-.772-5.609-4.798-14.085-4.582-19.439.773-5.603 5.601-5.603 14.671 0 20.274zm-9.735-30.011c2.477-2.478 6.483-2.477 8.961 0l1.993 1.993c1.563 1.563 4.097 1.563 5.657 0l1.993-1.993c6.127-6.122 14.773 3.146 8.962 8.962l-13.783 13.782-13.783-13.782c-2.476-2.477-2.478-6.485 0-8.962z"/></g></g></svg>