<svg id="Layer_1" enable-background="new 0 0 510 510" height="512" viewBox="0 0 510 510" width="512" xmlns="http://www.w3.org/2000/svg"><g><path d="m142.5 0-10 195 10 195 75 10 75-10 10-195-10-195h-75z" fill="#ffd400"/><path d="m457.5 0h-82.5-82.5v195 195l82.5 10 82.5-10z" fill="#fb0"/><path d="m112.5 405c-12.426 0-23.676 5.037-31.82 13.18-8.143 8.144-13.18 19.393-13.18 31.82 0 12.426 5.037 23.676 13.18 31.82 8.144 8.144 19.394 13.18 31.82 13.18h90 90l10-45-10-45h-90z" fill="#ecf5ff"/><path d="m412.5 405h-60-60v45 45h60 60v-45z" fill="#d6e8fe"/><path d="m142.5 0h-15-15c-16.542 0-31.542 6.729-42.406 17.594-10.865 10.864-17.594 25.864-17.594 42.406v390l90-60v-180z" fill="#5b6369"/><path d="m112.5 480c-8.271 0-15.771-3.364-21.203-8.797-5.433-5.432-8.797-12.932-8.797-21.203s3.364-15.771 8.797-21.203c5.432-5.433 12.932-8.797 21.203-8.797h90 90l10-15-10-15h-90-90c-16.542 0-31.542 6.729-42.406 17.594-10.865 10.864-17.594 25.864-17.594 42.406s6.729 31.542 17.594 42.406c10.864 10.865 25.864 17.594 42.406 17.594h90 90l10-15-10-15h-90z" fill="#fb0"/><path d="m457.5 420v-30h-82.5-82.5v15 15h52.5 52.5v30 30h-52.5-52.5v15 15h82.5 82.5v-30h-15-15v-30-30h15z" fill="#ffa000"/><path d="m232.5 165v30 7.5 22.5l10 16-10 14v30c0 16.542 6.729 31.542 17.594 42.406 10.864 10.865 25.864 17.594 42.406 17.594l10-112.5-10-67.5-30-10z" fill="#ea1c81"/><path d="m292.5 255h-30-30v-15-15h30 30l10 15z" fill="#9330a0"/><path d="m352.5 285v-82.5-37.5l-30-10-30 10v67.5 112.5c16.542 0 31.542-6.729 42.407-17.594 10.864-10.864 17.593-25.864 17.593-42.406z" fill="#bc00a2"/><path d="m292.5 165h-60v-45l31-10 29 10 10 24z" fill="#ecf5ff"/><path d="m352.5 165h-60v-45l30-10 30 10z" fill="#d6e8fe"/><path d="m202.5 60v30 30h45 45l10-30-10-30h-45z" fill="#d6e8fe"/><path d="m382.5 60h-45-45v30 30h45 45v-30z" fill="#b5dbff"/></g></svg>