<svg id="Capa_1" enable-background="new 0 0 511.844 511.844" height="512" viewBox="0 0 511.844 511.844" width="512" xmlns="http://www.w3.org/2000/svg"><g><g><g><path d="m465.997 374.833h-370.837c-34.317 0-62.136 27.819-62.136 62.136h-1.036v-421.969c0-8.284 6.716-15 15-15h404.01c8.284 0 15 6.716 15 15z" fill="#ff936b"/><path d="m450.997 0h-195.575v374.833h210.575v-359.833c0-8.284-6.716-15-15-15z" fill="#ff5c5c"/></g><g><path d="m114.397 504.36h329.565v-135.03h-329.565c-37.287 0-67.515 30.227-67.515 67.515 0 37.287 30.227 67.515 67.515 67.515z" fill="#f9f2f2"/><path d="m255.422 369.33h188.54v135.029h-188.54z" fill="#e7e2ee"/></g><g><path d="m443.962 421.845h-337.821c-8.284 0-15 6.716-15 15s6.716 15 15 15h337.821z" fill="#e7e2ee"/><path d="m255.422 421.845h188.54v30h-188.54z" fill="#d5d3ea"/></g><g><path d="m464.962 511.844h-358.081c-41.354 0-74.999-33.645-74.999-74.999s33.645-74.999 74.999-74.999h358.081c8.284 0 15 6.716 15 15s-6.716 15-15 15h-358.081c-24.812 0-44.999 20.186-44.999 44.999s20.187 44.999 44.999 44.999h358.081c8.284 0 15 6.716 15 15s-6.716 15-15 15z" fill="#ff5c5c"/><g fill="#c1126b"><path d="m464.962 481.844h-209.54v30h209.54c8.284 0 15-6.716 15-15s-6.716-15-15-15z"/><path d="m255.422 391.846h209.54c8.284 0 15-6.716 15-15s-6.716-15-15-15h-209.54z"/></g></g></g><g><g><path d="m304.637 199.782c-3.954 0-7.9-1.553-10.848-4.638-13.521-14.152-15.621-28.305-15.003-37.686 1.559-23.629 20.899-39.803 23.1-41.569l18.781 23.394c-3.091 2.55-11.419 11.285-11.952 20.252-.293 4.944 1.92 9.813 6.766 14.886 5.723 5.99 5.506 15.485-.484 21.207-2.905 2.775-6.636 4.154-10.36 4.154z" fill="#05303d"/><g><path d="m317.193 200.782h-97.088c-8.284 0-15-6.716-15-15s6.716-15 15-15h97.088c15.169 0 27.51-11.798 27.51-26.301 0-8.284 6.716-15 15-15s15 6.716 15 15c-.001 31.044-25.8 56.301-57.51 56.301z" fill="#0a617d"/><path d="m359.702 129.481c-8.284 0-15 6.716-15 15 0 14.503-12.341 26.301-27.51 26.301h-61.27v30h61.27c31.711 0 57.51-25.256 57.51-56.301 0-8.284-6.715-15-15-15z" fill="#05303d"/></g></g><g><g><path d="m123.461 140.585c6.626 0 11.613 6.033 10.367 12.541l-27.837 145.354c0 6.785 5.443 12.336 12.095 12.336h46.649c6.652 0 12.095-5.551 12.095-12.336 0-60.768 35.617-85.675 57.473-95.238 7.309-3.198 10.584-11.556 7.729-19.007-2.366-6.177-2.46-12.085-1.3-17.448 3.342-15.448 17.439-26.201 33.245-26.201h120.321c5.829 0 10.555-4.726 10.555-10.555v-40.603c0-5.83-4.726-10.555-10.555-10.555h-232.65c-20.777 0-38.603 12.883-46.217 31.244z" fill="#009398"/><path d="m394.298 78.873h-138.376v66.783c5.305-3.236 11.533-5.071 18.055-5.071h120.321c5.83 0 10.555-4.726 10.555-10.555v-40.602c0-5.83-4.725-10.555-10.555-10.555z" fill="#0a617d"/></g><path d="m178.902 110.585h-63.652c-2.418 5.996-3.761 12.559-3.761 19.445 0 5.829 4.725 10.555 10.554 10.555h56.859c8.284 0 15-6.716 15-15s-6.716-15-15-15z" fill="#0a617d"/></g></g></g></svg>